<svg width="15" height="13" viewBox="0 0 15 13" fill="none" xmlns="http://www.w3.org/2000/svg">
<path d="M1.5 12.1154C1.0875 12.1154 0.734251 11.967 0.440251 11.6701C0.146251 11.3733 -0.000498727 11.0169 1.27334e-06 10.601V1.51442C1.27334e-06 1.09796 0.147001 0.741311 0.441001 0.444484C0.735001 0.147657 1.088 -0.000503522 1.5 1.28559e-06H13.5C13.9125 1.28559e-06 14.2657 0.148415 14.5597 0.445241C14.8537 0.742068 15.0005 1.09846 15 1.51442V10.601C15 11.0174 14.853 11.3741 14.559 11.6709C14.265 11.9677 13.912 12.1159 13.5 12.1154H1.5ZM7.5 6.8149L13.5 3.02885V1.51442L7.5 5.30048L1.5 1.51442V3.02885L7.5 6.8149Z" fill="white"/>
</svg>
